<svg xmlns="http://www.w3.org/2000/svg" viewBox="0 0 244.71 70.33"><defs><style>.cls-1{fill:#8b1500;}</style></defs><title>Solution MarketArtboard 28</title><g id="text"><path class="cls-1" d="M15.79,52.07a.51.51,0,0,0-.34-.14h-.13l-1.49,0a10.54,10.54,0,0,1-1.22.28h-.47v-.07h-.21c-.13.13-.06.33-.33.54,0,.07.13.07.27.07a11.17,11.17,0,0,0,1.76-.29v.2a.52.52,0,0,0-.07.27V53h.07c.27,0,.54-.21.75-.21,0,.21-.14.27-.41.28l-.07.06v.14c-.07.07-.07.07-.14.07s-.2.07-.27.07.07.07.14.06a5.28,5.28,0,0,0,.54-.2v.07h.13c.07-.06.07-.06.14-.07s.4-.27.47-.27A.07.07,0,0,0,15,53c0,.07,0,.07.06.07h.21l-.27.2a6,6,0,0,1-1.62.63l-.88.41-.27.2c-.06,0-.54.08-.81.15a.16.16,0,0,1-.14-.14v-.13c-.06,0-.13-.07-.34-.27-.07,0-.47.21-.74.28l-.2.27c-.27.27-.47.48-.67.48H9.18c-.13,0-.2,0-.27-.06a.53.53,0,0,1-.14-.34.22.22,0,0,1,.07-.14A2.65,2.65,0,0,1,9,54c.06-.07.27-.21.33-.41v-.07H9.3c-.07,0-.2.28-.4.28a.24.24,0,0,0-.14-.07v.07c0,.13.07.07.07.2v.14c-.06.2-.33.34-.4.54-.13,0-.2.07-.2.14a3.08,3.08,0,0,1-.61-.2c-.2,0-.47.21-.74.21v-.2a1.2,1.2,0,0,1,.34-.48L7.48,54c0-.06-.07-.06-.07-.06a.07.07,0,0,0-.07.07A1.35,1.35,0,0,1,7,54.1H6.67c-.21,0-.27,0-.34-.07a2.5,2.5,0,0,0-.55-.13c-.06,0-.06,0-.13.14v.07l-.06.27-.34.34a.82.82,0,0,1-.47.27H4.71v-.06c.07,0,.07,0,.07-.07s-.14-.14-.14-.2V54.6a2.88,2.88,0,0,1,.06-.41l-.13-.06.06-.28a.39.39,0,0,0-.13-.27H3.82c-.21,0-.21-.2-.34-.2H3.21c-.27,0-.68-.06-1.16-.12a4.38,4.38,0,0,1-1.15-.2l-.13-.13c0-.07-.07-.07-.14-.07l-.14-.13c-.07-.07,0-.14-.07-.2s-.34-.14-.34-.2-.07-1-.08-1.7c0-.27.06-.61.06-.81l.65-3,.13-.41.26-1.29.14-.48.65-2.37a8.53,8.53,0,0,1,.4-1.16V41l.13-.48c.13-.61.33-1.29.59-2.1,0-.2.19-.88.26-1.36a4,4,0,0,0,.13-.61l.13-.14-.07-.06.07-.07.13-.61A4.75,4.75,0,0,0,4,34.7c.07-.28.4-1.29.53-1.77.07-.07.06-.2.13-.27s.2-.14.2-.21l.07-.4a2.48,2.48,0,0,1,.2-.48l.13-.14v-.27l.06-.2c0-.07.07-.14.14-.2h.07a10.54,10.54,0,0,1,.19-1.56A3.79,3.79,0,0,1,6,28.11c.14-.48.67-1.43.8-1.9A.26.26,0,0,0,6.9,26l.19-.88a.23.23,0,0,1,.07-.2l.07-.07L7.42,24a7.56,7.56,0,0,0,.33-1.23c.13-.47.32-1.62.39-2a6.29,6.29,0,0,1,.33-1.22c.65-2.24,1-3.47,1-3.6.2-.75.26-1.22.33-1.56l.12-.82L10.3,12c.45-2.1.78-3.46.91-4a22.37,22.37,0,0,1,.86-2.31c.46-1,.87-1.16,1.07-1.7a1.18,1.18,0,0,0,.4-.27,3,3,0,0,1,.33-.89c.07,0,.14.07.14.2a.53.53,0,0,1-.07.28c.27-.07.41-.41.47-.48a2.31,2.31,0,0,0,1.08-.49h.07c.34,0,.68.34,1,.4l.34-.27c.27-.21.33-.28.4-.28s.28.54.34.54c.21,0,.47-1,.54-1a.36.36,0,0,1,.33-.21c.14,0,.28.07.41.07a2.79,2.79,0,0,0,.34-.07c.2,0,.54-.14.61-.14.34,0,.47.13.74.19l.28.2A3.58,3.58,0,0,0,22,1.7a11.9,11.9,0,0,1,2.16-.23c1.36-.14,2.1-.22,2.24-.22h.34a32.87,32.87,0,0,1,3.45.24.26.26,0,0,1,.21.07l.2.13c.27.06.95.4,1.15.46a1,1,0,0,0,.41.2l.14.07.07.07h.34a.25.25,0,0,0,.2-.07,2.65,2.65,0,0,1,1.23,1.42l.34.4v.13a8.31,8.31,0,0,0,.62,1l.14.21-.07.13.14.07c.13.06.2.06.2.13l-.06.21A4.66,4.66,0,0,1,36,7.26l.07.07V7.4L36,7.53l.14.14-.07.2.14.07c0,.2.07.4.07.74v.81a.51.51,0,0,1,.07.34A12.23,12.23,0,0,1,36,12.27c-.06.21-.19.61-.19.68l-.07.34h-.07c-.33.82-1,1.23-1.33,1.77l-.07.21a2.32,2.32,0,0,0-.87,1.16c0,.07-.4.41-.47.61s-.61.48-.6.55v.13a2.63,2.63,0,0,0-.47.48l-.27.21a.2.2,0,0,1-.07.13l-.13.14c0,.13.88.33,1.08.33s.62.33.82.4v.06a1.4,1.4,0,0,0,.62,1h.07c.2,0,.33-.08.47-.08a.24.24,0,0,1,.2.07,5.22,5.22,0,0,1,.35.94l.14.07-.07.07.07.34A2.43,2.43,0,0,1,35.38,23v.2c0,.27.28,1,.35,1.56a3.56,3.56,0,0,1,.22,1v.07c0,.47.28,1.42.28,2v.13c.2,0,.13.41.2.41a4.08,4.08,0,0,0-.12,1.15v.14c.07,0,.13.2.14.33a6.62,6.62,0,0,1,.08,1.36v.61s.07,0,.07.06-.07.14-.07.28c-.19.74-.72,2.44-.92,3l-.26.75c-.14.27-.47,1.29-.53,1.49a2,2,0,0,1-.54.69A2.2,2.2,0,0,1,34,39a3.43,3.43,0,0,0-.27.68,3.39,3.39,0,0,1-.2.34l-.27.07v.14c0,.06,0,.06-.06.06h-.14l-.06.2h-.21c-.13,0-.2,0-.2.07l-.4.75.07.07.2-.21a.07.07,0,0,1,.07-.07.07.07,0,0,1,.07.07l-.14.41h.07l.14.2v.14c0,.06,0,.13-.07.13l-.27.07v.14H32.3l-.07.13-.07.07c-.06.07-.06.07-.06.14l-.07.13-.27.28v.06h.07A.07.07,0,0,0,31.9,43c.06,0,.06,0,.07.07v.07s0,.07-.21.21c0,.2-.27.13-.26.2v.14c0,.06-.07.27-.07.4a3.19,3.19,0,0,1-.26.75l-.07.34a2.63,2.63,0,0,1-1.27,1.16,2.38,2.38,0,0,0-.61.62V47c0,.07,0,.07-.13.14H29v.07c0,.07,0,.13-.13.2l-.07.14-.06.07c-.14.07-.14.07-.21.07l-.2.41a4,4,0,0,1-.52,1.69c-.07,0-.07.14-.14.21h-.13l-.07.07h-.13a1,1,0,0,1-.54.27h-.27c-.07,0-.14,0-.14.06v.07c-.61.21-1.42.29-1.75.7l-.14.13v.14c-.27,0-.47.27-.67.27,0,.07,0,.07-.14.14l-.2.14-.2.13h-.41c-.61,0-.94-.06-1.42-.06s-.81.08-1.42.15c-.07,0-.13,0-.14-.07l.07-.06c-.34,0-1,.07-2,.15-.2,0-.34.34-.4.34h-.27c-.14,0-.21,0-.27.07h-.14L17,52.6a.15.15,0,0,0-.14-.14,2.6,2.6,0,0,0-.88.28H15.8v-.07c.06,0,.4-.2.47-.2s-.07-.14-.21-.14-.27.07-.4.07-.14.07-.34.14l-.27.21v-.07c0-.07.14-.14.41-.21,0-.06-.14-.13-.28-.13a3.56,3.56,0,0,0-.54.07C14.64,52.28,15.59,52.07,15.79,52.07ZM31.67,40.14c0-.07.07-.13.13-.2s.27-.34.34-.54v-.07l-.07-.14c0-.07.06-.06.06-.07.07-.34.13-.54.34-.68l.06-.34a4.14,4.14,0,0,0,.27-.54l.06-.27v-.2l.07-.28.13-.34c0-.06-.2-.06-.21-.2V36.2a2.61,2.61,0,0,0,.4-.74.26.26,0,0,1,.07-.21h-.07c-.13,0-.2.28-.27.28s-.13-.14-.13-.2c0-.28.06-.55.06-.75s0-.14-.07-.14c-.07.21-.27.82-.6,1.7l-.06.34c-.07.27-.13.48-.34.55L31.78,37a3.2,3.2,0,0,1,.06-.34.07.07,0,0,0-.07-.07A12.94,12.94,0,0,0,31,38.12v.07c0,.06,0,.06.07.06s.33-.54.4-.61v.13a.48.48,0,0,1-.06.28v.2c.07,0,.13,0,.14.07v.2a1,1,0,0,1-.34.54V39a.15.15,0,0,0-.13-.14c-.27.48-.47.75-.6,1s0,.07-.07.07h-.07c-.07,0-.07.07-.07.14l-.06.14c-.07.06-.47.27-.54.34a1.05,1.05,0,0,0-.4.68c-.54.07-.94,1-1.28,1.09v-.06a6.76,6.76,0,0,1,.53-1c.14-.07.2-.2.47-.41l.47-.41a.84.84,0,0,0,.34-.41v-.13c.2-.14.4-.21.4-.28v-.06c-.07,0-.2-.14-.27-.14s-.2.28-.27.34l-.2.28a.27.27,0,0,0-.13.27l-.07.13c-.2.07-.4.35-.47.35a1.31,1.31,0,0,0,.33-.68.26.26,0,0,0,.07-.21l.54-.61c.46-1.29.86-1.9,1.13-1.91H31V37h.14v-.41c0,.07,0,.13-.07.14.2-.55.33-1.36.59-2.52h-.07a.26.26,0,0,0-.14.06h0a.24.24,0,0,0,.07.13l-.06.07c-.4,1-.73,1.56-.87,1.56a3.27,3.27,0,0,1,.13-.4c0-.28.13-.61.13-.75v-.2a.24.24,0,0,0-.07-.14.07.07,0,0,1,.07-.07v-.2a1.47,1.47,0,0,1,.06-.54c.06-.14.2-.21.2-.28a2.65,2.65,0,0,1,.2-.47v-.14c0-.13-.07-.13-.07-.2l-.14.14c0,.06,0,.13-.06.13v-.2a.22.22,0,0,0,.07-.14V32.5c0-.07,0-.07-.07-.07h-.07a6.88,6.88,0,0,1-.46,1.36c0,.07.07.13.07.2v.07c-.07,0-.13.14-.2.41,0,.06,0,.06-.06.13H30.2v.14l-.07.14c0,.06,0,.06-.06.06V34.4c-.13.07-.13.14-.13.27l-.07.34-.13.14h-.07a1.06,1.06,0,0,0,.06-.47c0-.07,0-.14-.06-.14h-.07c-.13.61-.67,1.5-.73,2s-.4,1.09-.86,2.18l-.2.4-.07.27-.13.14a.07.07,0,0,1,.07.07c-.07.07-.33.61-.54.68a.87.87,0,0,0,.13-.47l.14-.34a3.7,3.7,0,0,0,.26-.75c.07,0,.07,0,.07-.07v-.07h-.07c-.2,0-.67.82-.74,1s-.8.55-.8.62l-.07.07-.14.07c-.13.2-.26.34-.33.34s-.14-.13-.14-.2a.61.61,0,0,0,.4-.55l.41-.27c0-.07-.07-.07-.07-.14v-.13l.26-1.09v-.13c.06-.07.06-.07.06-.14A7.69,7.69,0,0,0,27,36.39l.13-.68c.07-.47.13-.94.19-1.56,0-.2.13-1.15.13-1.22a11.75,11.75,0,0,0,.05-1.62,20.66,20.66,0,0,0-.22-2.64l-.15-.81.07-.14L27,27.59c-.06,0-.06,0-.07-.07v-.07l.07-.13c-.07-.14-.14-.2-.14-.27l-.2-.47c0-.21-.08-.48-.08-.68-.2-.2-.35-1.15-.55-1.35l.06-.14a2.14,2.14,0,0,1-.41-.6,10.32,10.32,0,0,0-1.49-.74h-.68c-.41,0-.88.08-1.29.08H22a3.91,3.91,0,0,0-.88-.33h-.2a2.65,2.65,0,0,0-.68.14c-.07,0-.34-.06-.41-.06a1.27,1.27,0,0,1-.74.21,2.11,2.11,0,0,1-.61-.06c-.07.07-.06.34-.2.41h-.07c-.06,0-.13.06-.2.13h-.13l-.14.14h-.13l-.07.14a.2.2,0,0,0-.07.13h-.13c-.2.07-.27.07-.34.13l-.13.07a2.07,2.07,0,0,1-.41.28l-.2.13-.06.55c-.2.61-.6,2-.73,2.51l-.13.54a17,17,0,0,1-.39,2.1l-.19.82-.07.07-.06.47a.73.73,0,0,1-.07.34c-.13.54-.32,1.22-.32,1.29a.52.52,0,0,0-.07.27c0,.21.07.27.07.41v.2A4.56,4.56,0,0,1,14,35l.07.07c0,.07-.13.27-.13.34-.2,1.29-.45,3-.91,4.95a10.47,10.47,0,0,1-.52,1.9v.07l.06.07v.07c0-.14.06-.28.06-.41a.68.68,0,0,0-.14-.4v.4l-.06.07-.33,1.29a19.64,19.64,0,0,1-.66,2.44c-.13.27-.19.75-.39,1.43.13,0,.41-.07.61-.08h.13c.07,0,0,.21.07.21h.34a.76.76,0,0,0,.34-.2.65.65,0,0,1-.27-.07v-.07a2.24,2.24,0,0,0,.87-.21v.07c0,.2.54.47.74.47.07-.34,1.22-.49,1.35-.69H14l.41-.14a2.75,2.75,0,0,0,.61-.21l.2.07c.07-.07.13-.14.2-.14h.34l.68-.14.13-.14a2.13,2.13,0,0,1,.81-.41l.07-.07a6.54,6.54,0,0,0,1.62-.42c.13-.07.13-.07.13-.14v-.13l.07-.07c.27,0,.75.6,1,.6h.07a1.53,1.53,0,0,0,.81-.35h.13a3.93,3.93,0,0,1,.54-.54l.54-.55a5.51,5.51,0,0,1,1.34-1c.13-.34.67-.82.81-1.09a1,1,0,0,0,.47-.41l.06-.13c.2-.21.34-.28.47-.28a.35.35,0,0,1-.2.27l-.13.14-.07.2a.29.29,0,0,1-.06.21l.07.13.13.13a3.83,3.83,0,0,0-.47.55,1.16,1.16,0,0,0-.4.48v.27l.07.07.07.06.14.07c.2,0,.53-.55.8-.55a4.41,4.41,0,0,1,.75.27,2.09,2.09,0,0,1,.67-.69l-.13.55h.07c.13,0,.27-.13.4-.13a1,1,0,0,0-.13.4v.14c.27,0,.54-.41.74-.48l-.06.34a3.25,3.25,0,0,0,.61-.14c.13-.21.4-.55.53-.75.07,0,.14,0,.14-.07l.4-.61c-.2,0-.61.41-.67.41a.45.45,0,0,1,.26-.34.91.91,0,0,1,.27-.48l.07.14c0,.06.07.06.2.06s.21.07.21.14l-.07.06a.76.76,0,0,0-.27.34.29.29,0,0,1-.06.21v.07c0,.06.07.13.2.13h.14l-.2.27.06.07c0-.14.2-.34.61-.69.06-.13.27-.27.47-.47-.07.2-.4.47-.54.75.41-.21.61-.41.67-.62l.07-.13c0-.21.06-.41.06-.55A.24.24,0,0,0,31,41h.07l.06-.14a5.45,5.45,0,0,0,.47-.54ZM11.88,53.86c-.2,0-.27,0-.34.07v.2a2.48,2.48,0,0,0,.61-.21h.07a.89.89,0,0,0,.67-.27v-.07c-.07-.13-.13-.2-.2-.2a1,1,0,0,0-.54.34c.07,0,.07,0,.07.07h-.07A.39.39,0,0,0,11.88,53.86ZM19.13,15l-.07.07.07.07c.06.07,0,.14.07.13s.2-.07.27-.07l-.54,1.23,1.09.12,1.08.13c.07,0,.34-.14.88-.35a3.2,3.2,0,0,0,.81-.14h.14L23,16h.14l.67-.41.14-.21c.06,0,.06,0,.06-.06h.14c.2-.07.47-.41.54-.48.27-.28.81-.55,1.07-.83a9.91,9.91,0,0,0,1-1.7,6.26,6.26,0,0,0,.52-1.42c0-.14.07-.34.07-.48,0-.74-.22-1.62-.42-1.69L27,8.63a3.43,3.43,0,0,1-.34-.88l-.34-.4-.14-.07-.07-.07L26,7.08l-.13-.14-.28-.47h-.14a1.72,1.72,0,0,0-.74-.4V6H23a4.27,4.27,0,0,0-2.3.5c-.13.54-.19,2-.25,2.57l-.07.34-.06.34-.07.27.07.14a1.25,1.25,0,0,0-.2.4v.07a8.25,8.25,0,0,1-.25,1.56l-.33,1.29c0,.07-.13.41-.13.48V14h0c0,.06.07.06.07.06a.24.24,0,0,1-.07.14l-.13.2-.13.54Zm9.65,28.29h-.06c-.14,0-.21.13-.2.27C28.72,43.56,28.79,43.49,28.78,43.28Zm.28.34c.27-.27.4-.48.4-.61-.2,0-.54.48-.6.61l.2.07H29l-.2.2-.07.07V44h.07ZM31.41,2.56c-.07,0-.07,0-.07.07h.27A.25.25,0,0,1,31.41,2.56Zm-.67,24.25a.52.52,0,0,0-.06.34v.34l-.07.47a1.15,1.15,0,0,0-.06.41v.14l.07.13a.72.72,0,0,1,.07.41v.4c.13.07.14.54.14.61l.13-.54a3.23,3.23,0,0,1,.13-.75v1.49h.07a.06.06,0,0,1,.06.07l-.06.13c0,.07,0,.07.07.07h.06v-.61l.07-.13a.29.29,0,0,0,.06-.21,1,1,0,0,0,.07-.41v-.06c0-.07,0-.07.06-.07l.07.07.13-.21c.07-.13.07-.2.14-.2v.13c0,.07,0,.14.07.14l.07-.07.06-.07v-.07a5.76,5.76,0,0,0-.14-.67l.07-.21L32,27.82l-.14-.07v-.14a.24.24,0,0,0-.07-.13h-.07v.07a.21.21,0,0,0,.06.13l-.13.14c-.07.07-.07.14-.13.34v-.07h-.14c-.07,0,0-.41-.07-.47,0-.27-.14-.41-.21-.41v1.22a2.21,2.21,0,0,1-.14-.61l-.14-.26A4.15,4.15,0,0,0,30.74,26.81Zm.43,10.43-.07.13v.2a.18.18,0,0,1-.06.14c0,.14-.07.14-.07.2H31a6.23,6.23,0,0,0,.73-1.83C31.57,36.08,31.37,36.49,31.17,37.24Zm.51-4.07c0,.07-.07.13-.07.2s.34-.27.4-.54v-.14a.83.83,0,0,0-.07-.34A5,5,0,0,0,31.68,33.17Zm-.2,8.06h.06a2.15,2.15,0,0,0,1.14-1.64c0-.07,0-.07-.07-.06-.06.2-.47.47-.53.75l-.54.41v.4ZM32,35.81l.06-.07v0L32,35.67Z"/><path class="cls-1" d="M48.34,5.36V5.18l.13-.69V4.21l.16-.12L48.67,4V3.91c-.06,0,0,.06,0,.12l0,.06c-.12,0-.13-.28,0-.74l.08-.58c.22-.18.5-.19.52.09,0,.11.07.23.07.28s0,.29.08.34a.46.46,0,0,0,.27-.3l.21-.35c-.06-.05-.07-.11,0-.23A.37.37,0,0,1,50,2.24l0-.05.06.05h.12l.22-.18L50.56,2s.07.28.1.79l0,.8.27-.24a.31.31,0,0,0,.16-.24c.23-.07.56-1.28.73-1.29h.06c.06,0,.07.17,0,.52,0,.51,0,.91-.06,1.14-.09.41-.14.58-.08.58l.34-1.11a5.62,5.62,0,0,0,.23-1.09c0-.18.16-.12.16-.18V1.6c0-.06,0-.06.05-.06h.11c.06,0,.06,0,.06.05a.14.14,0,0,0,.12.11h.06l.12.05a.25.25,0,0,1,.07.28,3.06,3.06,0,0,0,.37,1.69c.06,0,.73-1.41,1-1.42l.06-.06V2.18l-.06-.05c0-.06,0-.06.11-.06h0c.29,0,.42.27.45.84a3.51,3.51,0,0,1,0,1.42l.05.91a4.55,4.55,0,0,1,0,.91l-.17,1-.09.52C54.46,9,52.59,18.55,52.45,19a10,10,0,0,0-.6,1.74l0,.29L51.3,23.3c0,.06,0,.12-.1.18s-.1.23-.15.4l0,.29a1.65,1.65,0,0,0-.26.64l-.08.58a6.14,6.14,0,0,1-.34,1.1,3.15,3.15,0,0,0-.29,1l-.43,1.74c-.2.52-.29.92-.39,1.21.06,0,.06,0,0,.06l-.55,2.43a1.14,1.14,0,0,1-.15.52,4.76,4.76,0,0,1-.08.63l0,.4-.1.29.06.11,0,.23.06.11-.1.29,0,.46L48,37.1l0,.23-.05.18,0,.4,0,.34-.09.46a2.31,2.31,0,0,1,0,.63l-.14.64-.22,1.26c0,1,.08,1.54.2,1.59a6.22,6.22,0,0,0,1.77.14c2.28-.18,3.53-.3,3.86-.38l.86,0c.16-.18,1.13-.18,1.18-.24a3.17,3.17,0,0,1,1-.16l.46,0H57l.18,0c.17,0,.17.05.17.1a.19.19,0,0,0,.17-.06,1.16,1.16,0,0,1,.64.25l.06.11.06,0c.18,0,.18.17.36.22l.06.1a2.85,2.85,0,0,1,.68.94,1,1,0,0,1,.22,1l-.05.23v.17c-.11.06-.11.06-.11.12l0,.23a1.23,1.23,0,0,0,.11,1,3.12,3.12,0,0,1-.3.82c-.22.18-.28.24-.33.24-.09.46-.19.75-.3.82l-.1.4a2.45,2.45,0,0,1-.47.77c-.11.12-.32.36-.59.71L56.8,51l-.22.13-.22.18-.33.19H55.8a1,1,0,0,0-.44.25l-.86.05a3.57,3.57,0,0,0-.8,0,1.52,1.52,0,0,0-.51.09l-.74,0h-.28a2.67,2.67,0,0,0-.57.08.67.67,0,0,0-.28.08.19.19,0,0,1-.17.06h0l-.91,0c-.29,0-.8,0-1,0l-.51,0a2.52,2.52,0,0,1-.85.1l-.52,0-.23,0a8.39,8.39,0,0,1-1.13.17c-.11,0-.68,0-1.88,0a1.2,1.2,0,0,1-.4,0,1.18,1.18,0,0,1-.52-.09l-1.32-.16H41.8c-.11,0-.22.12-.44.3s-.38.37-.55.37-.17.07-.39.08l-.29,0-.06.06a.19.19,0,0,0-.16.07c-.06.06-.06.06-.11.06h-.23c-.23,0-.34,0-.35,0l.11-.06V52.9s.06-.06.17-.06l0-.12.05-.12c.29,0,.4,0,.45-.08s-.06-.05-.11-.05h-.12a.18.18,0,0,1-.16.06l-.4,0h-.12s0,0-.11.06h-.11c0-.06-.06-.06-.12,0s0,0-.06-.06c0-.23.15-.35.33-.35l.16-.13-.13-.22a.73.73,0,0,0,.26-.53l.14-.57.06-1.15q.06-.51,0-.51l0-.23a.41.41,0,0,0-.07-.23c.05-.06.16-.12.16-.18l0-.17-.11.06c-.06.06-.06.06-.11.07h-.06l.05-.12c0-.28,0-.4.09-.46l-.27.24.06.12,0,.23,0,.23,0-.23a.51.51,0,0,1,0-.4.48.48,0,0,1,0-.29l-.06-.11c.05-.06.05-.11,0-.11l-.06-.06.06.06c0,.06,0,.06-.11.06h-.06s-.06,0-.06-.11a.14.14,0,0,0-.11.12.47.47,0,0,1,0-.39,7.25,7.25,0,0,1-.33,1.27l-.05.17c-.06,0,0-.06,0-.11s0-.06.05-.12l0-.29.09-.46,0-.28a4.43,4.43,0,0,0-.34,1.16c-.14.52-.23.92-.28,1.21.06.05.06.05.07.11H38a11.27,11.27,0,0,0-.34,1.1l-.09-.5c0-.06,0-.06-.05-.06v-.11c-.06-.11,0-.17,0-.23V50l0-.17v-.06c-.06-.05-.06-.05-.06-.11a3.47,3.47,0,0,1,.24-.81,2.26,2.26,0,0,0,.14-.63l0-.12c.13-.75.29-2,.42-2.93l.18-.87.12-1a11,11,0,0,1,.21-1.38c.21-1.38.18-1.89.41-3l.09-.52c0-.17,0-.51,0-.57a5.8,5.8,0,0,1,.23-1c.09-.4.25-1.72.59-3.91l.09-.51a2,2,0,0,0,0-.52c0-.11.19-.75.47-2,0-.12.09-.41.18-.81s.19-.69.19-.75a9.27,9.27,0,0,1,.35-1.05c.14-.46.39-1.16.44-1.33a7.1,7.1,0,0,1,.38-1.5c.19-.7.34-1.16.38-1.45.17,0,2.18-10.11,2.83-12.94l.14-.64L46,7.88a8.85,8.85,0,0,1,.38-1.45c0-.17.15-.41.25-.7A2.75,2.75,0,0,1,46.83,5a.25.25,0,0,1,.05-.18L47,4.68l0-.28c0-.18,0-.29,0-.35l.05-.28.11-.06V3.59l.34,0c.06.06.07.23,0,.52l-.09.46c0,.4,0,.57.09.56a.33.33,0,0,0,0,.46l-.22.24c0,.17.07.22.08.28s.21-.36.3-.76A6.09,6.09,0,0,0,47.8,3.9a2.55,2.55,0,0,0-.07-.4l.05-.11h.11L48,3.32l.12.17.18.16,0,.11L48.15,4l.07.12a4,4,0,0,0,0,1.42C48.29,5.53,48.29,5.47,48.34,5.36ZM40.07,51.84c0-.06,0-.06-.06-.06H39.9v-.06a.64.64,0,0,0,.28-.13c-.06,0-.06,0-.06-.05h.17l.05-.06-.06-.11c-.06,0-.12-.11-.07-.17H40.1c-.06.06-.11.12-.17.12l0,.17h-.06a.16.16,0,0,0-.11.06H39.6c-.05,0-.06-.06,0-.12l-.06-.05h-.11v.12l.25.33a.43.43,0,0,0-.34.19l.06.05.06,0,.06-.06.11-.06C39.91,52,40.08,52,40.07,51.84Zm-.55-4,0-.18v0C39.52,47.7,39.47,47.82,39.52,47.82Zm9.4-42.21c0-.11,0-.17,0-.23H48.8c0,.06,0,.11.06.11Zm.28-.19-.06,0v.11ZM49.29,4s0,.06,0,.12a.76.76,0,0,0,0,.29v.06l-.05,0c0,.18.19.34.13.4s0,.17-.1.29v0h.05a1.17,1.17,0,0,0,.15-.58c.09-.4.08-.63,0-.68Z"/><path class="cls-1" d="M73.71,24.26l-.17,1.27-.07.58,0,.12c.06.05.06.05.06.11l0,.06c.06,0,0,.06,0,.17a5.76,5.76,0,0,1-.24,1.22,5,5,0,0,0-.28,1.34c-.12.64-.28,1.45-.47,2.5-.38,2.15-.68,3.38-.76,3.72l0,.29h-.06l-.05.12a20.37,20.37,0,0,1-.51,2.61l-.11.7-.11.7,0,.4v0c0,.24-.3,1.17-.32,1.58a6.71,6.71,0,0,1,0,.8l0,.29-.15.93c0,.17,0,.57,0,.63A11.58,11.58,0,0,1,70,46.14c0,.11-.15.3-.47.55s-.26.26-.32.26,0,.06-.05.06l-.11.13c-.2.24-.68,0-1,.08,0-.11-.13-.16-.18-.1v0c-.06-.06-.06-.06,0-.12l-.1.07c-.06.06-.06.06-.12,0l0-.45h0c0-.17,0-.29,0-.23s-.06,0-.11.07l0,.06c-.11.7-.2,1-.27.94,0-.35.13-.53.19-.53s.12-.58,0-.57,0-.06-.11,0v.05s-.16.19,0,.18l0,.17c-.06,0,0-.23-.13-.22,0-.12,0-.17,0-.23h.11l0-.17L67,46.05h-.11c0-.06,0-.05,0-.11-.17.07-.19.42-.24.48l-.07,0s-.11,0,0-.06l.1-.18L66.64,46c-.06,0-.06,0-.11.07l0,.12a.21.21,0,0,1,0,.18c0,.06,0,.06,0,0l0,.17,0,.12-.06,0v-.06l0,.12c.06.05.06.11,0,.11s0,0,0-.06,0,.11,0,.28c0,0-.1.07-.16.13s-.19-.21-.11-.67c0-.18,0-.23-.14-.22s0-.11.1-.18V46L66,46v0l.08-.41c.06,0,0,.23.08.22s.16-.13,0-.23-.12-.11-.07-.17h.12a.11.11,0,0,1,.1-.12l0-.35c0-.05-.07-.05-.07-.1,0-.24,0-.35.13-.42l0,.12c.13.16.27-.19.23,0v.12l.11-.07v-.06l.08-.35c0-.06,0-.06.12,0h0a6,6,0,0,1,0-.92c-.12,0-.25.48-.24.59l-.06,0h-.11l-.06,0v-.12c-.06,0-.11.13-.14.36l0-.23c0-.12,0-.17-.07-.17s-.1.13-.09.3,0,.17,0,.17.06,0,.12,0,0,.12-.11.07a1.66,1.66,0,0,1-.19.47l.19.21,0,.18c0-.12-.07-.17-.13-.17a1.06,1.06,0,0,0-.07.53h0s0,0,.06.05H66l0,.06A1.53,1.53,0,0,1,66,46l-.09.29.06.06v0l-.08.3c-.06,0,.13-.41,0,0l-.1.13c-.06-.06-.14-.33,0-.4l-.06-.11c-.06-.05,0-.17,0-.23l-.07-.11.16-.12c-.06-.06,0-.46,0-.51h-.17v.06l0,.12v0l.07.11-.11.07a.11.11,0,0,1,.12.1h-.06c.07,0,0,.22,0,.28s-.08.36-.19.37a1.44,1.44,0,0,0,0-.46h0c-.06,0-.06,0-.07-.05s.1-.18.16-.19,0-.11,0-.11l-.14-.22c-.11.07-.09.24-.07.52,0,.06,0,.06-.05.06l0,.06-.14,1c-.17,0-.15-.39,0-1.14-.06,0-.1.23-.17.75a.31.31,0,0,1-.07-.22.19.19,0,0,1,0-.17c-.06,0-.06,0-.06-.05s.08-.35,0-.41l0,.18h-.06v.12l-.19.41c0-.05-.12,0-.17.08l0,.12c-.06,0-.12,0-.18,0l-.14-.27v.06c-.06,0-.06,0,0,.06s-.07-.05-.12-.05-.16.13-.15.3c-.18-.1-.28-.61-.35-.14v.17c-.06-.05,0-.34-.09-.39h-.06V46.4l0-.12c0-.06,0-.06-.06-.11s-.11.07-.16.13a2.55,2.55,0,0,1-.17.7c-.11,0-.13-.22-.05-.63l0,.18c-.06,0-.06,0-.06-.11s-.07-.17-.18-.1c0-.29,0-.4-.1-.45l-.15.19,0,.17s0,0,0-.17S62,46,62,46a.23.23,0,0,0-.12,0l0-.06a1.29,1.29,0,0,1-.1-.51,3.43,3.43,0,0,1,0-.79c0-.29.29-1.23.31-1.63v-.17l.06-.07v-.05l.08-.47V42a.86.86,0,0,0,.14-.35c.15-.93.54-3,.64-3.83,0-.06,0-.4,0-.57a10,10,0,0,0,.29-1.17L63.25,36c.21-.19.34-.72.43-1.7L63.84,33l.12-.64a3.65,3.65,0,0,1,.26-1,28.37,28.37,0,0,1,.65-3,7.58,7.58,0,0,0,.1-1.44l.18-1.16V25.7a.18.18,0,0,0,.1-.19,1.38,1.38,0,0,1,.09-.92v-.05l.18-1.22c0-.23.16-.81.2-1l0-.4.06-.06,0-.23.2-1,0-.06a2.61,2.61,0,0,0,.3-1.17l.14-1c0-.23.27-.88.27-.94.07-.4.46-1.18.5-1.47-.07-.11.06-.52.29-1.17a1.13,1.13,0,0,0,.14-.41c.17,0,.28,0,.38-.26h.11l0-.12a.53.53,0,0,0,.2-.31l0-.06v.06c.06,0,.17,0,.17,0h0l.24-.54c.06,0,.13.17.19.16l.26-.25a.36.36,0,0,1,.23,0c.12,0,.17,0,.18,0L70,13c.17,0,.19.21.24.21,0-.18,0-.29.09-.35s.23,0,.24.15c.06,0,0-.06,0-.12l.1-.18c.05,0,.12.16.18.15S71,13,71,13l0,.12c.17,0,.42-.44.44-.15,0,0,.06,0,.06-.06V12.8c.17,0,.23,0,.24.15s.11-.06.1-.18.07.17.12.16v-.17l.1-.12c.17,0,.25.15.21.43l.22-.19c.05,0,.06.06.07.17h.17a3.45,3.45,0,0,0-.07.52h.11a.2.2,0,0,0-.07-.17c.11-.06.09-.23.18-.53.06,0,0,.06,0,.17H73c.06.05.06.05,0,.11v.12c0-.06.15-.19.15-.25v.12c.07.16.09.45,0,.51l0,.46c0,.11,0,.17,0,.17s-.1.12-.21.13c0,.18-.09.3-.15.3l0-.23c0-.12,0-.17,0-.17h-.11l.06.05c-.22.08-.33.09-.29-.08v-.12c-.17.07-.14.36-.08.41s0,.17-.1.18.12.1,0,.22l-.1.19V15c0-.06,0-.06-.06-.11L72,15s0,.11-.05.06a.16.16,0,0,1,.1-.18V14.8c-.07-.05-.07-.05-.07-.11l0-.23,0-.23v-.06c0-.06,0-.12.1-.18s0-.06-.07-.05v-.11a1.17,1.17,0,0,0-.27.82l-.07.52a2.07,2.07,0,0,1-.21.76c0,.17,0,.46,0,.52h.12c.06,0,.12.1.07.16a.18.18,0,0,0,.16-.07c.06,0,.07,0,.07.11s.06,0,.05-.06.06.05,0,.11a.38.38,0,0,1,.3.09c.05,0,0-.12.1-.13a.12.12,0,0,1,.12.11c.06,0,.06,0,.06,0l.07.05c0,.06,0,.06.06.11v.12h.17l.18.1c0-.07.17-.07.28-.08s.06,0,.06.05v.06h.11c0-.07.11-.07.11-.13s.06.05.07.23l.07.16c-.1.18.09.39.1.45l-.05.12c.07.16,0,.23.08.22l0,.57a1.55,1.55,0,0,1,.17.61c0,.23,0,.57,0,1s0,.75-.15,1.44l-.09.35,0,.41-.08.4-.07.47A4.3,4.3,0,0,1,73.71,24.26Zm-10,22.65c-.06.06-.06,0,0-.17C63.79,46.74,63.79,46.79,63.75,46.91Zm1.59-.08c0,.06-.06,0,0-.34C65.37,46.49,65.38,46.6,65.34,46.83Zm.56-2.68v.06l0-.06c0-.4.07-.58,0-.52l0,.23-.06.07Zm.25.89v0Zm.07-.57v0Zm.5-2.11a1.13,1.13,0,0,1,.19-.47.75.75,0,0,0-.08.41c0,.05.07.11.08.22s0,.23.11,0,0-.12,0-.18-.07,0,0-.11l.17,0s0-.06.1-.06a1.47,1.47,0,0,0,0,.51v.11h.17l0-.12c0-.06,0-.06.1-.07s.14.28.15.33,0,0,0-.06l0-.06h.11c0-.06,0-.06.06-.06s0,.11.06.1,0-.11.09-.29h-.11c.1-.18.07-.52.12-.58v.06s0,0,.07,0,0-.11,0-.12l0,.17c0,.06,0,.11.06.11l.08-.47s.15-.24.09-.29c-.24,0-.26-.26-.11-.56l-.12-.1s0,.11-.16.12c0-.17,0-.22,0-.23a.39.39,0,0,1,.09-.29s-.07-.17,0-.46h.06l.15-.87V39c.09-.3.08-.41,0-.41s0-.11-.06-.11v.06c0,.06,0,.06.06.05l0,.12-.21.19c0,.06-.11.12-.17.13,0-.17.15-.3.15-.36v0h-.11c0,.34-.07.52-.13.52s-.11,0-.12,0A.14.14,0,0,0,68,39l0-.17c-.05.06-.12,0-.17,0l-.09.35.12,0s0,0-.05.06l-.1.12c-.17,0-.24,0-.13-.1a.18.18,0,0,0-.07-.16c-.09.29-.08.4-.13.41s-.07-.11,0-.23l0-.23,0,.17a3,3,0,0,1-.12.58l-.13.47v.06c-.1.07-.1.07-.1.12s.06,0,.11-.06l.11-.07,0,.18h0s0,.12-.1.12l-.06,0L67,40.51l0,.12c0,.06,0,.06-.06,0v-.11a.34.34,0,0,0-.09.29c0,.06,0-.12.11-.12a.24.24,0,0,0,0,.17L67,41a.81.81,0,0,0-.21.19c.06.05.06.11.12.1l-.12,0c0,.05-.09.29-.08.35l.06.11,0,.06,0,.06c0-.06,0-.06-.06,0V42c0,.06,0,.12,0,.12l-.07.47S66.6,42.32,66.72,42.36Zm0,4.81c-.05,0-.06-.05,0-.23s0-.23-.13-.21l0-.23A.88.88,0,0,1,66.68,47.17Zm0-3.72h-.06v0h.06Zm0-.74c0-.06,0-.12,0-.11S66.64,42.72,66.69,42.71Zm.36-1.86v-.06c-.06,0-.06,0,0,0s0-.06.1-.07l0-.17s.11,0,.07.22h-.05a1,1,0,0,1-.1.24,2.52,2.52,0,0,1-.12.52c-.07,0-.07,0-.12,0l0,.23c-.06,0,0,.06,0,.11l-.18-.15.25-.37-.06,0v-.06A1.17,1.17,0,0,1,67.05,40.85Zm-.15,2.93h-.06l0,.07h.06Zm.45-2.1c0,.29-.08.47-.13.47L67.15,42l0-.17c.06-.06.05-.17.1-.24S67.29,41.69,67.35,41.68Zm-.09,1.67h-.11l.06,0,.06.05Zm-.1.75s.16-.07.16-.13Zm.06,0c0,.18,0,.23,0,.23S67.39,44.14,67.22,44.15Zm.11-2.7c-.06,0-.06-.05-.07-.1s.06,0,.06,0ZM67.49,40a.16.16,0,0,1-.16.19A.19.19,0,0,1,67.49,40Zm0,.75,0-.06-.06-.05-.05.06Zm.31,3.52,0,.12v-.18l0-.4h-.11l0,.18h-.06v.12l0,.06,0,.46v.05c-.08.41-.06.58,0,.58l.14-.36c.06,0,0,.23.14.22,0-.06,0-.12.09-.18C67.83,44.56,67.81,44.33,67.75,44.28Zm-.06-3.94c0-.07,0-.07,0-.06a.37.37,0,0,0-.22.08l.05-.12a.27.27,0,0,0,.21-.14v.06l0,.29Zm.47.18c0,.06,0,.12-.21.25a1.39,1.39,0,0,1-.08.41c-.05.06,0,.06.07,0l-.11.12h0l0,.34c-.06.06-.06.06-.06,0a.14.14,0,0,0-.12-.1v-.06c.11-.06.11-.06.1-.12h-.17s.06-.06.11-.06l0-.12.05-.06c0-.18,0-.23.09-.24l-.12-.16c-.17.07-.12,0,0-.06-.07-.17,0-.23.09-.24v-.11c0-.17,0-.35.14-.41h-.06c-.06,0-.06,0,0-.11h-.06l-.1.07,0-.12.22-.07c.06,0,.08.16,0,.22S68.05,40.53,68.16,40.52Zm-.58-.8,0,.91v-.06h.12C67.65,40.57,67.65,40.63,67.6,40.63Zm.07-1.09-.06,0,.12,0-.12,0c0-.06,0-.07.11-.07v.06c-.06,0-.06,0-.06.06Zm.45,1.79c-.06,0-.07,0,0-.17S68.16,41.15,68.12,41.33Zm0-27.5c.06,0,.12.05.13.16S68.12,14,68.11,13.83Zm.12,24.23,0-.06v-.17h-.12a.11.11,0,0,0,0,.17v.06h0c0,.06.06.11.13.16ZM76.9,3.8c-.1.24.29.72.24.78v.06c.13.1.21.38.25.84l0,.51a4.33,4.33,0,0,1-.05.74,10.79,10.79,0,0,1-1,2.72c-.25.42-.88,1.1-1.16,1.13a.41.41,0,0,0-.22.07l-.22.08a6.76,6.76,0,0,1-.89.31,7.93,7.93,0,0,1-1.84.5,4.43,4.43,0,0,1-.75,0,.48.48,0,0,1-.3-.14c-.06-.06-1,0-1-.14s-.31-.32-.91-.61H69a2.36,2.36,0,0,0-.26-.38l-.31-.31H68.4a1.87,1.87,0,0,1-.17-1.3,9.59,9.59,0,0,1,.13-1.1c0-.17.08-1,.08-1.09h.11l0-.23a.11.11,0,0,1-.12-.1c.06,0,.06,0,.06,0l.12.05c.06,0,.15-.19.21-.19,0-.4.06-.64,0-.75l0,.06h-.12c0-.29.32-.25.37-.43l0-.06,0-.18,0-.23s.1-.12.16-.07a1.29,1.29,0,0,0,.31-.43.22.22,0,0,0,.32-.2l.1-.18c.13.16.19.22.24.15a.12.12,0,0,0,.11-.12s0,.11.06.11h.12l.11-.07.22,0c-.05.06-.05.06,0,.06.09-.24.2-.36.25-.37a2.58,2.58,0,0,0,.55-.22L71.85,3l.05-.12a.62.62,0,0,0,.55-.28.26.26,0,0,0,.28,0l.11-.07a.37.37,0,0,0,.22-.08l.11-.06.19-.42c.06,0,.06.05.07.11l.06.05c.06,0,.1-.13.16-.13l.07.11c0,.06,0,.06,0,.06.34,0,.2-.31.36-.49s0-.06.11-.07h.11c0,.06,0,.34.09.39a.18.18,0,0,1,.23,0c0,.06.06,0,.11-.07h.17c.06,0,.07.05.08.17l.12.16c.12,0,.75,0,.88.2H76c.14.39.28.6.5.53C76.64,3.48,76.78,3.76,76.9,3.8ZM68.34,41.94c-.06,0-.06,0-.07-.17l.07.17Zm.08-1.67c.12,0,.22-.13.25-.42v-.06c-.06,0-.06,0-.12,0Zm.28.49-.06.07c0,.06,0,.06,0,.11v.12l.06.11c-.11.06-.15.18,0,.17l.07-.52C68.75,40.76,68.75,40.76,68.7,40.76Zm.35-1.8s0-.18,0-.17l-.1.24a.55.55,0,0,1-.15.24l0-.29-.15.24s.06.05.06.11l.07.11c.06,0,.06,0,.06.05s-.17,0-.17.07h.12c.06.11,0,.23-.09.3.11,0,.17,0,.17,0l-.2.24s.07.17.13.16l0-.11c0-.17,0-.23.09-.3h.12c.13-.41.16-.7,0-.74,0,.17,0,.28-.08.29C69,39.25,68.89,39,69.05,39ZM69,40l.11-.13H69l0,.23Zm.17,1.93.11-.07c.06,0,.19-.42.13-.47l-.11.07c0-.06,0-.12,0-.12C69.17,41.64,69.08,41.93,69.14,41.93Zm.1-.18c-.06,0-.07-.11,0-.23C69.28,41.57,69.29,41.63,69.24,41.75Zm.07-26.65c-.11.07-.14.41-.07.46C69.39,15.32,69.37,15.15,69.31,15.1Zm.24,23.65h0l-.16.7-.06.69c0,.06.07.11.12,0s0,.11.07.11a5.18,5.18,0,0,1,.22-1.39l0-.24,0-.11.08-.47c0-.06.1-.18.15-.24s-.12,0-.12-.05v-.11a.25.25,0,0,0,0-.29l-.11.07c0-.06,0-.06-.06-.05l0,.17c.05,0,.05,0,.1-.07s-.1.12-.09.18l0,.12,0,.06c-.05.06,0,.11,0,.17s.06.05,0,.06h-.06v.06A3.16,3.16,0,0,0,69.55,38.75Zm.83-23.86c-.06,0-.06-.05-.12,0a.18.18,0,0,0,0,.17l0,.17v.18a.42.42,0,0,1,.08.22Zm.45,1.22c0,.06,0,.23.17,0l.11-.06c0-.18,0-.29-.08-.28a.12.12,0,0,1-.1.12C71,16,70.88,16.05,70.83,16.11Zm.32-.26c0,.29,0,.41,0,.46l.11-.07.11-.07,0-.34,0-.06,0-.12c-.06-.06-.06-.06-.07-.11l0-.29c.18-.53.16-.76,0-.8s-.1.18-.15.3v.11l-.07.46v.12a.42.42,0,0,1-.16.07Zm1-1.46c0,.18-.08.3,0,.29C72.17,14.51,72.22,14.39,72.16,14.39Zm.23.61,0-.06,0,.06Zm.23,21h.06s-.05.12-.26.3C72.36,36.21,72.46,36.15,72.62,36Zm-.11-20.91s0,0,.06,0l-.1.12C72.41,15.23,72.4,15.17,72.51,15.05Zm0-.18,0-.06,0,.06Zm.21.44c-.06,0-.05-.51,0-.57h0S73,15.29,72.76,15.31Zm.57-2s.06,0,.07.22l-.1.07C73.23,13.56,73.22,13.44,73.33,13.32Zm.23.67a1.38,1.38,0,0,1,.13-.47s0,.29-.1.81C73.53,14.33,73.52,14.22,73.56,14Zm.22,2.55c-.06,0,0-.06,0-.17S73.83,16.42,73.78,16.54Zm.34-2.61c.06,0,.06,0,0,.06l.07.11a.78.78,0,0,0,.18-.47v.11a.85.85,0,0,1-.08,1l.12.1c-.11,0,0,.46-.13.47v0l0-.24h-.11c0,.06,0,.12.06.06L74.22,15h-.06v.06c0,.05,0,.11.06.1s0,0-.1.07l.11,0-.11,0c-.06,0-.06,0,0,.06v.06s0-.24,0-.29,0,.06-.1.12,0,.23-.1.24c.06,0,.06,0,.06.05s-.07-.22-.13-.21A5.92,5.92,0,0,1,74.12,13.93ZM74,16.35v-.12a.14.14,0,0,1,.13.11Z"/><path class="cls-1" d="M91.05,2.23c-.1.24.29.72.24.78v.06c.13.1.21.38.25.83l0,.51a4.43,4.43,0,0,1,0,.75,10.93,10.93,0,0,1-1,2.72C90.32,8.3,89.69,9,89.41,9a.41.41,0,0,0-.22.07L89,9.16a5.68,5.68,0,0,1-.89.3,7.58,7.58,0,0,1-1.84.51,5.82,5.82,0,0,1-.75-.05.48.48,0,0,1-.3-.14c-.06-.06-1,0-1-.14s-.31-.32-.91-.61h-.06a2.36,2.36,0,0,0-.26-.38l-.31-.32h-.06a1.87,1.87,0,0,1-.17-1.3A9.59,9.59,0,0,1,82.51,6c0-.17.08-1,.08-1.09h.11l0-.23c-.05,0-.12,0-.12-.1s.06,0,.06.05l.12,0c.06,0,.15-.19.21-.19,0-.41.06-.64,0-.75l0,.06h-.12c0-.29.32-.26.37-.43l0-.06,0-.18,0-.23s.1-.12.16-.07a1.29,1.29,0,0,0,.31-.43.22.22,0,0,0,.32-.2l.1-.18c.13.16.19.21.24.15A.13.13,0,0,0,84.57,2c.05,0,0,.11.06.11h.12L84.86,2l.22,0c0,.06,0,.06,0,.06.09-.24.2-.36.25-.37a2.58,2.58,0,0,0,.55-.22L86,1.42l0-.12A.62.62,0,0,0,86.6,1a.26.26,0,0,0,.28,0L87,.93a.45.45,0,0,0,.22-.08l.11-.06.19-.42c.06,0,.06,0,.07.11l.06,0c.06,0,.1-.12.16-.12a1.05,1.05,0,0,1,.07.11c-.05.06-.05.06,0,.06.34,0,.2-.31.36-.49s0-.06.11-.07h.11c0,.06,0,.34.09.39s.17,0,.24,0,0,0,.1-.07h.17c.06,0,.07.05.08.16l.12.16c.12,0,.75,0,.88.21h.06c.14.39.28.6.5.53C90.79,1.91,90.93,2.19,91.05,2.23Z"/><path class="cls-1" d="M68.81,52.73c0-.06,0-.06.06-.07h0c.15-.3.24-.48.3-.49h.06s.14.27.1.45a.33.33,0,0,0,.18.1h0v.06c.06,0,.06,0,.12,0l.1-.12a2.24,2.24,0,0,1-.12-.67l.11-.07v0c.07.06.07.06.12,0L70,51.7,70,51.65l.06-.06h.11c.06,0,.24.09.32.37s.31.31.33.48a4.79,4.79,0,0,1,0,1.71c0,.57,0,1,.06,1.31s.11.57.17.56h0c.06,0,0,.29.09.28l0,.29a5,5,0,0,0,0,1.32,5.41,5.41,0,0,1,0,.91c0,.18.06.63,0,.92,0,1,.1,1.7.09,2.22l0,.23,0,.18a1.26,1.26,0,0,0,.13.78l.06.06c.06.05.12,0,.07.11v.05l0,.12v.06A4.77,4.77,0,0,1,71.77,65c0,.17.32.37.33.54.06,0,.59.17.65.17a.29.29,0,0,0,.11-.07v-.05a.89.89,0,0,0,.71.27.88.88,0,0,0,.54-.33l.05-.12c0-.06,0-.11,0-.12l.1-.07c.11-.06.09-.29.2-.36s.11-.06.1-.12l.05-.12h.06c.05,0,.31-.94.36-1l.16-.13a8.24,8.24,0,0,1,.21-.88h0a30.38,30.38,0,0,0,.88-3.51c.53-2.4.95-4.66,1.27-6.87,0-.17,0-.8,0-1L78,49.48c.07-.52.11-1.26.15-2.12.06-1.21.1-2,.13-2.3l.53-2.4a5.66,5.66,0,0,0,.39-1.35,12.5,12.5,0,0,0,.48-1.64c0-.17.89-13.23.92-13.46.08-.41.27-1.4.34-1.92,0-.29,0-.92.1-1.39,0-.17.17-.64.21-.87a10.32,10.32,0,0,1,.07-1.15A8.07,8.07,0,0,1,82,18.82c.21-.19.15-.19.24-.48l.07-.47c.1-.18.09-.24.15-.24h.06a.29.29,0,0,0,.09-.23v-.12l.11-.06c.05-.06.05-.06.11-.07l.09-.18.83-.3c.06,0,.05-.12.11-.13.27-.14.43-.21.43-.27h.17a.71.71,0,0,0,.44-.16H85l.21-.19,0-.06a.21.21,0,0,0,.17-.08v0h.06c.06.05.06.05.12.05.28,0,1.09-.62,1.31-.64H87l.06.05.11-.07V15l.17,0a7,7,0,0,1,.78-.24c.28,0,.4,0,.42.19s0,.46.09.45l0,.11v.12c0,.29.31.94.23,1.35v.11c0,.18.09.34.11.51a9.38,9.38,0,0,1,0,1.83l0,.34c0,.18,0,.24,0,.29s.08.16,0,.34l0,.29a6.78,6.78,0,0,1,0,1.77c0,.06,0,.11-.09.18v.11c0,.23,0,1.49-.1,2.13l0,.69c-.11.64-1,14.72-1,15a21.69,21.69,0,0,1-.36,3,25.78,25.78,0,0,1-.61,3.42c0,.06,0,.06.07.06v.11l-.27.82V48a9.07,9.07,0,0,0-.14,1.5l0,.18s.12,0,.07.1c-.11.64-.24,1.17-.31,1.58,0,.23,0,.8,0,1s-.14.36-.13.41c0,.24,0,1-.06,1.27a4.94,4.94,0,0,0-.21.82,3.2,3.2,0,0,0,0,.91,18.2,18.2,0,0,1-.78,2.76,28.45,28.45,0,0,1-.93,3,4.51,4.51,0,0,0-.26.82,12.37,12.37,0,0,0-.6,1.6l0,.17,0,.12a.25.25,0,0,0,0,.18c-.06,0-.15.18-.18.47a2.68,2.68,0,0,1-.38.89,1.48,1.48,0,0,0-.64.46c-.06,0-.06,0-.06.07l-.16.07c-.26.25-.37.37-.42.38H81v.06l-.11.06a1.53,1.53,0,0,0-.49.28c-.27.19-.87.48-1.14.67l0,.12,0,.06h-.05c-.23.08-.61.23-.67.23l0,.06-.11.07c-.16.07-.71.35-.77.36a.75.75,0,0,0-.39.09l-.1.12-1.45.42-.5.22-1,.38a12.62,12.62,0,0,1-1.79.39,8,8,0,0,1-1.09,0,3.56,3.56,0,0,1-1-.08c-.29-.09-.35-.14-.41-.13s-.16.07-.28.08l-.06,0h-.11l-.17.07a3.17,3.17,0,0,0-1.38-.1c0-.06,0-.06-.06,0a1.41,1.41,0,0,1-.81-.1h-.11a.53.53,0,0,0-.39.2l-.19-.26a.46.46,0,0,0-.36-.14l-.28,0c-.34,0-.23-.6-.35-.71l-.68-1.14,0-.12s-.2-.26-.34-.54a.85.85,0,0,0-.08-.33L64,66.77l0-.51L63.87,65l-.1-1.7,0-.34a11.6,11.6,0,0,1,0-1.54v-.12c0-.05,0-.06.1-.12h-.06l0-.23.09-.92c.07-.47,0-1.32.07-1.72L64,58a.11.11,0,0,1,.12.1c0,.06-.09.18-.09.24l.06.05a2.17,2.17,0,0,1,.14.9,1.86,1.86,0,0,0,.25-.42v-.11c0-.24.09-.87.08-1l.08-.35c0-.06.16-.13.15-.19l0-.12c.11,0,.12.11.09.34v.17H65c.23,0,.26-.25.32-.25s.06,0,.06,0l.05-.06a.22.22,0,0,1,0-.12h.06c0-.75.15-2.7.19-2.93,0,0,.06,0,0,.11v.11c0,.06,0,.12,0,.12a.43.43,0,0,0,.2-.3h0c.06,0,.06,0,0,.06v.11h.11l-.1.12a.2.2,0,0,0,.07.17c.06,0,0-.06.1-.12l.11-.13h.11l0-.12c.06.05.06.05.06.11s0,.12-.09.18,0,.45,0,.63v.11c0-.06,0-.12.09-.23l0-.24a2,2,0,0,1,.12-.46v-.12c.06,0,.07,0,.07.11l0,.23,0,.28-.08.35c0,.29.14.91.1,1.14s.19.21.14.27c-.07.52,0,.81.07.8H67c.06,0,.06,0,0-.06l0-.18c0-.05,0-.05.06-.06s.25-.36.36-1.06l0-.63.08-.41,0-.17c0-.18.1-.24.15-.24h.06c.17,0,.1,1.08.16,1.07s0,0,.1-.06l0-.12c.06,0,.06,0,.06,0a14.79,14.79,0,0,0,.36-1.75c0-.23,0-.63,0-.8l0-.07h.06v-.17h.06Z"/><path class="cls-1" d="M110.7,51.57a38.29,38.29,0,0,1-13.44-2.24V6.52L106.92,5v18.3c2-2,4.67-4.09,8.39-4.09,6.39,0,11.26,4.86,11.26,15.48C126.57,46.32,120.36,51.57,110.7,51.57Zm1.53-23.74c-2,0-3.71,1.21-5.31,3V43.25a10.52,10.52,0,0,0,3.52.57c3.78,0,6.47-2.3,6.47-8.51C116.91,30.07,115,27.83,112.23,27.83Z"/><path class="cls-1" d="M140,33.78v17.4h-9.67V19.83h8.45l1,6.2c1.92-3.58,4.55-6.52,9.15-6.84L150.5,29A15.39,15.39,0,0,0,140,33.78Z"/><path class="cls-1" d="M165.73,51.82c-8.64,0-15-6.2-15-16.25s6.4-16.38,15-16.38,15.1,6.27,15.1,16.32S174.44,51.82,165.73,51.82Zm.07-24.7c-3.71,0-5.7,3.27-5.7,8.39S162.15,44,165.8,44s5.76-3.39,5.76-8.45S169.51,27.12,165.8,27.12Z"/><path class="cls-1" d="M197.86,51.82c-8.64,0-15-6.2-15-16.25s6.39-16.38,15-16.38S213,25.46,213,35.51,206.56,51.82,197.86,51.82Zm.06-24.7c-3.71,0-5.69,3.27-5.69,8.39S194.28,44,197.92,44s5.76-3.39,5.76-8.45S201.64,27.12,197.92,27.12Z"/><path class="cls-1" d="M236.13,51.18l-.64-4.09c-2.11,2.37-5,4.73-9,4.73-6.4,0-11.33-4.86-11.33-15.42,0-12,6.34-16.76,13.25-16.76a18.84,18.84,0,0,1,6.65,1V6.52L244.71,5v46.2ZM235,28.08a9.55,9.55,0,0,0-4.54-.89c-3.2,0-5.63,2.49-5.63,8.51,0,5.37,2,7.55,4.8,7.55,2.05,0,3.71-1.34,5.37-3.2Z"/></g></svg>