<svg xmlns="http://www.w3.org/2000/svg" viewBox="0 0 25.13 28.18"><defs><style>.cls-1{fill:#FFFFFF;}</style></defs><title>Solution MarketArtboard 32</title><g id="Layer_1" data-name="Layer 1"><path class="cls-1" d="M8.46,10.79c.11-1,.14-1.9.32-2.8A4.47,4.47,0,0,1,13,4.13c2.8-.15,4.4,1.48,4.87,4,.17.87.19,1.77.28,2.73h.53a1.7,1.7,0,0,1,1.69,1.68c0,2.93,0,5.86,0,8.8A1.66,1.66,0,0,1,18.9,23a3.27,3.27,0,0,1-.54,0H8.46a1.92,1.92,0,0,1-1.73-.68,2.37,2.37,0,0,1-.43-1.22c0-2.77,0-5.54,0-8.3a1.85,1.85,0,0,1,1.9-2Zm8,0A7.11,7.11,0,0,0,16,7.38a2.87,2.87,0,0,0-4.63-1c-1.22,1.21-1.22,2.8-1.2,4.41ZM14.7,20c-.12-.8-.23-1.55-.36-2.3a.72.72,0,0,1,.24-.73,1.62,1.62,0,0,0,.5-1.71,1.75,1.75,0,0,0-3.33-.21,1.73,1.73,0,0,0,.55,2.05.53.53,0,0,1,.25.61c-.13.75-.22,1.5-.32,2.29Z"/></g></svg>